# xmcd CD database file
#
# Track frame offsets:
#	150
#	17825
#	39865
#	57560
#
# Disc length: 1059 seconds
#
# Revision: 0
# Processed by: cddbd v1.5PL3 Copyright (c) Steve Scherf et al.
# Submitted via: CDex 1.51
#
DISCID=2b042104
DTITLE=Peachy - ユメミル チカラ
DYEAR=2001
DGENRE=Pop
TTITLE0=ユメミル チカラ
TTITLE1=Sweet Sweet Home
TTITLE2=ユメミル チカラ (カラオケ)
TTITLE3=Sweet Sweet Home (カラオケ)
EXTD=YEAR: 2001
EXTT0=
EXTT1=
EXTT2=
EXTT3=
PLAYORDER=
